PathFileType	4	(X/Y/Z)	Run_300 02
DataRate	CameraRate	NumFrames	NumMarkers	Units	OrigDataRate	OrigDataStartFrame	OrigNumFrames
100	100	4	42	mm	100	37	128
Frame#	Time	LASI			RASI			LPSI			RPSI			RTH1			RTH2			RTH3			LTH1			LTH2			LTH3			RTB1			RTB2			RTB3			LTB1			LTB2			LTB3			RCAL			RTOE			RMT5			LCAL			LTOE			LMT5			LACR			RACR			CLAV			C7			RUA1			RUA2			RUA3			RLEL			RMEL			LUA1			LUA2			LUA3			LLEL			LMEL			RFAsuperior			RFAradius			RFAulna			LFAsuperior			LFAradius			LFAulna			
		X1	Y1	Z1	X2	Y2	Z2	X3	Y3	Z3	X4	Y4	Z4	X5	Y5	Z5	X6	Y6	Z6	X7	Y7	Z7	X8	Y8	Z8	X9	Y9	Z9	X10	Y10	Z10	X11	Y11	Z11	X12	Y12	Z12	X13	Y13	Z13	X14	Y14	Z14	X15	Y15	Z15	X16	Y16	Z16	X17	Y17	Z17	X18	Y18	Z18	X19	Y19	Z19	X20	Y20	Z20	X21	Y21	Z21	X22	Y22	Z22	X23	Y23	Z23	X24	Y24	Z24	X25	Y25	Z25	X26	Y26	Z26	X27	Y27	Z27	X28	Y28	Z28	X29	Y29	Z29	X30	Y30	Z30	X31	Y31	Z31	X32	Y32	Z32	X33	Y33	Z33	X34	Y34	Z34	X35	Y35	Z35	X36	Y36	Z36	X37	Y37	Z37	X38	Y38	Z38	X39	Y39	Z39	X40	Y40	Z40	X41	Y41	Z41	X42	Y42	Z42	

26	0.68	825.113411	1049.226222	-477.649065	836.497748	1029.491471	-218.563	659.161076	1067.245882	-399.816627	662.4179789999999	1066.161772	-300.374177	688.457857	862.664727	-168.478762	727.2020240000001	743.8623689999999	-187.233652	611.4612969999999	658.125478	-210.964108	806.0305959999999	855.921665	-517.054159	928.20888	770.052325	-500.616629	921.1795980000001	643.318273	-474.148044	555.626361	408.415451	-278.169152	499.962038	376.395902	-217.187273	454.416255	274.045882	-280.957522	982.1993189999999	414.111693	-405.893465	919.555108	333.756314	-462.578154	948.013681	261.16734	-398.621208	289.867382	233.106216	-294.968368	440.220766	67.282529	-308.374054	391.78883	81.763268	-221.235734	817.203698	134.823076	-381.100567	1042.780774	99.51577399999999	-369.201423	985.542582	65.75756699999999	-446.697719	793.824559	1512.050215	-528.40691	831.226075	1529.817979	-202.319067	871.447208	1461.613793	-341.828873	743.9551290000001	1536.604878	-353.35274	792.573335	1461.113962	-108.558164	722.419215	1390.916042	-111.98054	762.274718	1343.12603	-65.80527600000001	733.560741	1245.219224	-19.465821	705.862704	1221.992265	-95.078352	711.512833	1461.130114	-594.890904	645.052084	1409.716544	-545.573017	606.573142	1356.537992	-599.935891	562.382292	1282.799437	-622.149228	559.602565	1279.867564	-546.704732	838.30332	1218.657974	-26.601326	980.5583350000001	1182.519072	-80.960808	956.174677	1118.683215	-58.053093	642.8395839999999	1204.387773	-637.127977	761.438865	1096.763605	-587.160019	707.859959	1056.84057	-612.985021	
27	0.6899999999999999	827.500765	1053.015083	-477.032653	838.099153	1033.381561	-219.33855	662.001181	1072.889053	-400.15077	664.529026	1070.831701	-300.529369	686.775142	868.502216	-169.448005	724.028373	748.520708	-186.390729	608.025765	664.4265830000001	-210.890511	804.7057160000001	857.314015	-516.353603	925.84672	770.218973	-499.743437	916.011761	642.960346	-473.453131	548.007852	415.020481	-276.531989	490.528223	385.575684	-215.855307	444.151314	283.024766	-278.779698	987.00708	412.742234	-407.116284	932.872292	326.720956	-464.14542	968.131657	257.361156	-398.846407	281.843473	250.7388	-293.50721	417.581275	72.206012	-307.36346	369.656192	89.910477	-220.827337	852.548309	117.366052	-381.697545	1080.877711	109.477156	-369.961814	1029.103905	72.073204	-453.609344	794.176792	1515.595519	-529.872371	832.318524	1533.872406	-204.658985	872.311247	1465.662139	-344.073317	744.852624	1540.002856	-354.851315	793.637193	1465.516651	-111.314147	722.953386	1395.824178	-114.314916	762.667089	1348.359303	-67.74376599999999	734.456967	1250.281601	-20.921907	706.1933739999999	1226.932763	-96.534387	711.301021	1466.729439	-596.065863	645.795468	1415.601065	-545.386573	605.231873	1363.141639	-599.272531	559.947671	1289.749275	-621.3261639999999	559.17854	1287.155645	-545.469273	839.214758	1224.135944	-28.567638	981.366083	1188.637147	-83.77061999999999	957.706894	1124.74589	-60.013184	639.846143	1211.199474	-637.441825	759.178218	1102.825138	-589.037093	705.295218	1062.93259	-614.353618	
28	0.7	830.1279510000001	1055.236544	-476.276075	839.0520770000001	1036.644643	-219.736445	665.426772	1077.073296	-400.903358	665.9505	1074.009697	-300.812233	685.906895	873.524469	-171.146741	723.0318600000001	751.859672	-186.056397	607.358078	668.792489	-211.117862	802.35749	856.269198	-516.312	922.538101	767.990158	-499.645249	910.497793	640.215975	-474.794793	543.967997	419.972268	-276.180192	483.850646	392.985124	-214.946017	435.513982	290.970907	-277.095062	990.20595	411.190881	-408.33823	944.137668	321.706732	-466.460482	985.607965	255.42134	-400.215239	276.370611	267.885397	-292.337703	396.607305	78.40249900000001	-306.733137	348.585748	99.141442	-220.770496	885.171822	104.105558	-383.89653	1112.873491	121.345915	-370.778414	1067.472176	80.267967	-461.346021	795.144581	1517.803893	-531.37028	833.095838	1537.189285	-206.852073	873.416319	1468.563993	-346.111402	746.217433	1542.45427	-356.884071	793.901422	1469.200748	-113.818805	722.861139	1399.679472	-117.154156	762.426481	1352.688756	-69.721931	734.827375	1254.392996	-22.595872	706.520704	1231.022711	-98.27756599999999	712.0219039999999	1470.540933	-597.4633239999999	647.477501	1419.216147	-545.281852	605.23579	1367.752921	-599.136377	559.372069	1294.40521	-621.62324	559.504981	1291.920088	-545.3171170000001	839.544297	1228.38617	-30.528448	981.811072	1193.239603	-86.262376	958.4679640000001	1129.389438	-61.830622	638.59257	1216.0343	-638.081311	758.769007	1107.272292	-590.719017	705.021585	1067.141081	-615.943957	
29	0.71	832.815233	1056.03033	-475.564086	839.521123	1039.243304	-219.875613	668.962769	1079.56148	-402.160689	666.732814	1075.917481	-301.093133	686.187637	877.09452	-173.278309	724.23986	753.494007	-186.418859	609.524763	670.823951	-211.610432	799.3982600000001	853.6083180000001	-517.015264	918.602942	764.137665	-500.371222	904.226027	635.5706280000001	-478.31699	542.761581	423.101715	-276.381345	480.002355	398.572991	-214.436082	428.131716	297.97977	-275.870457	992.133185	409.996438	-409.430797	952.912415	318.727448	-469.300309	999.803946	255.358417	-402.304111	272.456642	284.427377	-291.311928	376.368707	85.385677	-306.283772	328.368398	109.38069	-220.890137	912.423594	95.24332699999999	-386.677647	1137.483676	133.162527	-371.683976	1097.086434	88.561414	-465.55885	796.744691	1518.579886	-533.00369	833.628093	1539.429298	-209.060333	874.5747249999999	1470.191173	-347.994111	747.897923	1543.923801	-359.4003	793.485609	1471.997922	-116.139552	722.422358	1402.372866	-120.34035	761.61369	1355.989577	-71.74900599999999	734.649536	1257.562168	-24.280024	707.001887	1234.313934	-100.118271	713.649432	1472.369767	-599.1576229999999	650.041237	1420.558855	-545.603655	606.343087	1370.217048	-599.622416	560.490852	1296.672813	-623.048929	560.403556	1293.97025	-546.133086	839.299208	1231.374113	-32.4218	981.851421	1196.253563	-88.394347	958.4751	1132.502547	-63.487388	639.137229	1218.643825	-639.173462	760.109417	1109.992111	-592.310935	706.918182	1069.409129	-617.762483	
